<svg xmlns="http://www.w3.org/2000/svg" viewBox="0 0 1142 704" role="img" aria-labelledby="title desc">
<title id="title">Live preview control map</title>
<desc id="desc">Source-derived WILD_console Form1 control map generated from the current main Form1.Designer.cs. No AI-generated device imagery.</desc>
<!-- Generated from current main WILD_console Form1.Designer.cs; no AI-generated device imagery. -->
<style>text{font-family:Arial,Helvetica,sans-serif}.small{font-size:11px}.muted{fill:#50687a}</style>
<rect x="0" y="0" width="1142" height="42" fill="#092b4b" stroke="#092b4b" stroke-width="1" rx="0"/>
<text x="18" y="27" font-size="17" fill="#ffffff" font-weight="700" font-family="Arial, Helvetica, sans-serif">WILD Advanced Closed-loop Ephys System - main Form1 source</text>
<rect x="0" y="42" width="1142" height="30" fill="#f2f5f8" stroke="#bfd1dd" stroke-width="1" rx="0"/>
<rect x="8" y="46" width="66" height="25" fill="#eef4f8" stroke="#bfd1dd" stroke-width="1" rx="3"/>
<text x="41.0" y="64" font-size="13" fill="#0c1720" text-anchor="middle" font-family="Arial, Helvetica, sans-serif">Offline</text>
<rect x="78" y="46" width="66" height="25" fill="#ffffff" stroke="#bfd1dd" stroke-width="1" rx="3"/>
<text x="111.0" y="64" font-size="13" fill="#0c1720" font-weight="700" text-anchor="middle" font-family="Arial, Helvetica, sans-serif">Online</text>
<rect x="148" y="46" width="88" height="25" fill="#eef4f8" stroke="#bfd1dd" stroke-width="1" rx="3"/>
<text x="192.0" y="64" font-size="13" fill="#0c1720" text-anchor="middle" font-family="Arial, Helvetica, sans-serif">Advanced</text>
<text x="1130" y="27" font-size="13" fill="#d9edf8" text-anchor="end" font-family="Arial, Helvetica, sans-serif">Live preview control map</text>
<rect x="8" y="80" width="1126" height="440" fill="#ffffff" stroke="#bfd1dd" stroke-width="1" rx="7"/>
<rect x="24" y="96" width="1094" height="30" fill="#dce3e8" stroke="#dce3e8" stroke-width="1" rx="0"/>
<text x="62" y="117" font-size="14" fill="#0c1720" font-weight="700" font-family="Arial, Helvetica, sans-serif">Wave</text>
<text x="1054" y="117" font-size="14" fill="#0c1720" font-weight="700" font-family="Arial, Helvetica, sans-serif">CH1</text>
<polyline points="58.0,202.5 63.6,208.5 69.3,207.4 74.9,207.4 80.5,212.8 86.2,213.8 91.8,208.4 97.4,206.9 103.1,208.8 108.7,204.4 114.3,197.3 119.9,197.0 125.6,198.2 131.2,193.6 136.8,190.6 142.5,195.2 148.1,198.4 153.7,196.4 159.4,198.9 165.0,206.4 170.6,208.5 176.3,206.6 181.9,210.0 187.5,214.5 193.2,211.2 198.8,206.7 204.4,208.1 210.0,207.5 215.7,200.3 221.3,196.2 226.9,198.2 232.6,196.4 238.2,191.0 243.8,192.4 249.5,197.7 255.1,197.5 260.7,196.6 266.4,202.8 272.0,208.6 277.6,207.3 283.3,207.5 288.9,213.0 294.5,213.7 300.1,208.2 305.8,206.9 311.4,208.7 317.0,204.1 322.7,197.1 328.3,197.1 333.9,198.2 339.6,193.3 345.2,190.7 350.8,195.5 356.5,198.4 362.1,196.3 367.7,199.1 373.4,206.6 379.0,208.5 384.6,206.6 390.2,210.2 395.9,214.5 401.5,211.0 407.1,206.6 412.8,208.2 418.4,207.3 424.0,200.0 429.7,196.2 435.3,198.3 440.9,196.2 446.6,190.9 452.2,192.6 457.8,197.9 463.5,197.4 469.1,196.7 474.7,203.2 480.3,208.6 486.0,207.2 491.6,207.7 497.2,213.2 502.9,213.5 508.5,208.0 514.1,207.0 519.8,208.7 525.4,203.8 531.0,197.0 536.7,197.2 542.3,198.1 547.9,193.1 553.6,190.7 559.2,195.7 564.8,198.4 570.4,196.3 576.1,199.4 581.7,206.9 587.3,208.4 593.0,206.6 598.6,210.5 604.2,214.5 609.9,210.7 615.5,206.6 621.1,208.3 626.8,207.1 632.4,199.7 638.0,196.3 643.7,198.3 649.3,195.9 654.9,190.8 660.5,192.9 666.2,198.0 671.8,197.3 677.4,196.9 683.1,203.5 688.7,208.7 694.3,207.1 700.0,207.9 705.6,213.4 711.2,213.3 716.9,207.9 722.5,207.1 728.1,208.7 733.8,203.5 739.4,196.9 745.0,197.3 750.6,198.0 756.3,192.9 761.9,190.8 767.5,195.9 773.2,198.3 778.8,196.3 784.4,199.7 790.1,207.1 795.7,208.3 801.3,206.6 807.0,210.7 812.6,214.5 818.2,210.5 823.9,206.6 829.5,208.4 835.1,206.9 840.7,199.4 846.4,196.3 852.0,198.4 857.6,195.7 863.3,190.7 868.9,193.1 874.5,198.1 880.2,197.2 885.8,197.0 891.4,203.8 897.1,208.7 902.7,207.0 908.3,208.0 914.0,213.5 919.6,213.2 925.2,207.7 930.8,207.2 936.5,208.6 942.1,203.1 947.7,196.7 953.4,197.4 959.0,197.9 964.6,192.6 970.3,190.9 975.9,196.2 981.5,198.3 987.2,196.2 992.8,200.0 998.4,207.3 1004.1,208.2 1009.7,206.6 1015.3,211.0 1020.9,214.5 1026.6,210.2 1032.2,206.6 1037.8,208.5 1043.5,206.6 1049.1,199.1 1054.7,196.4 1060.4,198.4 1066.0,195.5" fill="none" stroke="#4b64ff" stroke-width="1.8"/>
<polyline points="58.0,257.5 63.6,263.5 69.3,262.4 74.9,262.4 80.5,267.8 86.2,268.8 91.8,263.4 97.4,261.9 103.1,263.8 108.7,259.4 114.3,252.3 119.9,252.0 125.6,253.2 131.2,248.6 136.8,245.6 142.5,250.2 148.1,253.4 153.7,251.4 159.4,253.9 165.0,261.4 170.6,263.5 176.3,261.6 181.9,265.0 187.5,269.5 193.2,266.2 198.8,261.7 204.4,263.1 210.0,262.5 215.7,255.3 221.3,251.2 226.9,253.2 232.6,251.4 238.2,246.0 243.8,247.4 249.5,252.7 255.1,252.5 260.7,251.6 266.4,257.8 272.0,263.6 277.6,262.3 283.3,262.5 288.9,268.0 294.5,268.7 300.1,263.2 305.8,261.9 311.4,263.7 317.0,259.1 322.7,252.1 328.3,252.1 333.9,253.2 339.6,248.3 345.2,245.7 350.8,250.5 356.5,253.4 362.1,251.3 367.7,254.1 373.4,261.6 379.0,263.5 384.6,261.6 390.2,265.2 395.9,269.5 401.5,266.0 407.1,261.6 412.8,263.2 418.4,262.3 424.0,255.0 429.7,251.2 435.3,253.3 440.9,251.2 446.6,245.9 452.2,247.6 457.8,252.9 463.5,252.4 469.1,251.7 474.7,258.2 480.3,263.6 486.0,262.2 491.6,262.7 497.2,268.2 502.9,268.5 508.5,263.0 514.1,262.0 519.8,263.7 525.4,258.8 531.0,252.0 536.7,252.2 542.3,253.1 547.9,248.1 553.6,245.7 559.2,250.7 564.8,253.4 570.4,251.3 576.1,254.4 581.7,261.9 587.3,263.4 593.0,261.6 598.6,265.5 604.2,269.5 609.9,265.7 615.5,261.6 621.1,263.3 626.8,262.1 632.4,254.7 638.0,251.3 643.7,253.3 649.3,250.9 654.9,245.8 660.5,247.9 666.2,253.0 671.8,252.3 677.4,251.9 683.1,258.5 688.7,263.7 694.3,262.1 700.0,262.9 705.6,268.4 711.2,268.3 716.9,262.9 722.5,262.1 728.1,263.7 733.8,258.5 739.4,251.9 745.0,252.3 750.6,253.0 756.3,247.9 761.9,245.8 767.5,250.9 773.2,253.3 778.8,251.3 784.4,254.7 790.1,262.1 795.7,263.3 801.3,261.6 807.0,265.7 812.6,269.5 818.2,265.5 823.9,261.6 829.5,263.4 835.1,261.9 840.7,254.4 846.4,251.3 852.0,253.4 857.6,250.7 863.3,245.7 868.9,248.1 874.5,253.1 880.2,252.2 885.8,252.0 891.4,258.8 897.1,263.7 902.7,262.0 908.3,263.0 914.0,268.5 919.6,268.2 925.2,262.7 930.8,262.2 936.5,263.6 942.1,258.1 947.7,251.7 953.4,252.4 959.0,252.9 964.6,247.6 970.3,245.9 975.9,251.2 981.5,253.3 987.2,251.2 992.8,255.0 998.4,262.3 1004.1,263.2 1009.7,261.6 1015.3,266.0 1020.9,269.5 1026.6,265.2 1032.2,261.6 1037.8,263.5 1043.5,261.6 1049.1,254.1 1054.7,251.4 1060.4,253.4 1066.0,250.5" fill="none" stroke="#4b64ff" stroke-width="1.8"/>
<polyline points="58.0,312.5 63.6,318.5 69.3,317.4 74.9,317.4 80.5,322.8 86.2,323.8 91.8,318.4 97.4,316.9 103.1,318.8 108.7,314.4 114.3,307.3 119.9,307.0 125.6,308.2 131.2,303.6 136.8,300.6 142.5,305.2 148.1,308.4 153.7,306.4 159.4,308.9 165.0,316.4 170.6,318.5 176.3,316.6 181.9,320.0 187.5,324.5 193.2,321.2 198.8,316.7 204.4,318.1 210.0,317.5 215.7,310.3 221.3,306.2 226.9,308.2 232.6,306.4 238.2,301.0 243.8,302.4 249.5,307.7 255.1,307.5 260.7,306.6 266.4,312.8 272.0,318.6 277.6,317.3 283.3,317.5 288.9,323.0 294.5,323.7 300.1,318.2 305.8,316.9 311.4,318.7 317.0,314.1 322.7,307.1 328.3,307.1 333.9,308.2 339.6,303.3 345.2,300.7 350.8,305.5 356.5,308.4 362.1,306.3 367.7,309.1 373.4,316.6 379.0,318.5 384.6,316.6 390.2,320.2 395.9,324.5 401.5,321.0 407.1,316.6 412.8,318.2 418.4,317.3 424.0,310.0 429.7,306.2 435.3,308.3 440.9,306.2 446.6,300.9 452.2,302.6 457.8,307.9 463.5,307.4 469.1,306.7 474.7,313.2 480.3,318.6 486.0,317.2 491.6,317.7 497.2,323.2 502.9,323.5 508.5,318.0 514.1,317.0 519.8,318.7 525.4,313.8 531.0,307.0 536.7,307.2 542.3,308.1 547.9,303.1 553.6,300.7 559.2,305.7 564.8,308.4 570.4,306.3 576.1,309.4 581.7,316.9 587.3,318.4 593.0,316.6 598.6,320.5 604.2,324.5 609.9,320.7 615.5,316.6 621.1,318.3 626.8,317.1 632.4,309.7 638.0,306.3 643.7,308.3 649.3,305.9 654.9,300.8 660.5,302.9 666.2,308.0 671.8,307.3 677.4,306.9 683.1,313.5 688.7,318.7 694.3,317.1 700.0,317.9 705.6,323.4 711.2,323.3 716.9,317.9 722.5,317.1 728.1,318.7 733.8,313.5 739.4,306.9 745.0,307.3 750.6,308.0 756.3,302.9 761.9,300.8 767.5,305.9 773.2,308.3 778.8,306.3 784.4,309.7 790.1,317.1 795.7,318.3 801.3,316.6 807.0,320.7 812.6,324.5 818.2,320.5 823.9,316.6 829.5,318.4 835.1,316.9 840.7,309.4 846.4,306.3 852.0,308.4 857.6,305.7 863.3,300.7 868.9,303.1 874.5,308.1 880.2,307.2 885.8,307.0 891.4,313.8 897.1,318.7 902.7,317.0 908.3,318.0 914.0,323.5 919.6,323.2 925.2,317.7 930.8,317.2 936.5,318.6 942.1,313.1 947.7,306.7 953.4,307.4 959.0,307.9 964.6,302.6 970.3,300.9 975.9,306.2 981.5,308.3 987.2,306.2 992.8,310.0 998.4,317.3 1004.1,318.2 1009.7,316.6 1015.3,321.0 1020.9,324.5 1026.6,320.2 1032.2,316.6 1037.8,318.5 1043.5,316.6 1049.1,309.1 1054.7,306.4 1060.4,308.4 1066.0,305.5" fill="none" stroke="#4b64ff" stroke-width="1.8"/>
<polyline points="58.0,367.5 63.6,373.5 69.3,372.4 74.9,372.4 80.5,377.8 86.2,378.8 91.8,373.4 97.4,371.9 103.1,373.8 108.7,369.4 114.3,362.3 119.9,362.0 125.6,363.2 131.2,358.6 136.8,355.6 142.5,360.2 148.1,363.4 153.7,361.4 159.4,363.9 165.0,371.4 170.6,373.5 176.3,371.6 181.9,375.0 187.5,379.5 193.2,376.2 198.8,371.7 204.4,373.1 210.0,372.5 215.7,365.3 221.3,361.2 226.9,363.2 232.6,361.4 238.2,356.0 243.8,357.4 249.5,362.7 255.1,362.5 260.7,361.6 266.4,367.8 272.0,373.6 277.6,372.3 283.3,372.5 288.9,378.0 294.5,378.7 300.1,373.2 305.8,371.9 311.4,373.7 317.0,369.1 322.7,362.1 328.3,362.1 333.9,363.2 339.6,358.3 345.2,355.7 350.8,360.5 356.5,363.4 362.1,361.3 367.7,364.1 373.4,371.6 379.0,373.5 384.6,371.6 390.2,375.2 395.9,379.5 401.5,376.0 407.1,371.6 412.8,373.2 418.4,372.3 424.0,365.0 429.7,361.2 435.3,363.3 440.9,361.2 446.6,355.9 452.2,357.6 457.8,362.9 463.5,362.4 469.1,361.7 474.7,368.2 480.3,373.6 486.0,372.2 491.6,372.7 497.2,378.2 502.9,378.5 508.5,373.0 514.1,372.0 519.8,373.7 525.4,368.8 531.0,362.0 536.7,362.2 542.3,363.1 547.9,358.1 553.6,355.7 559.2,360.7 564.8,363.4 570.4,361.3 576.1,364.4 581.7,371.9 587.3,373.4 593.0,371.6 598.6,375.5 604.2,379.5 609.9,375.7 615.5,371.6 621.1,373.3 626.8,372.1 632.4,364.7 638.0,361.3 643.7,363.3 649.3,360.9 654.9,355.8 660.5,357.9 666.2,363.0 671.8,362.3 677.4,361.9 683.1,368.5 688.7,373.7 694.3,372.1 700.0,372.9 705.6,378.4 711.2,378.3 716.9,372.9 722.5,372.1 728.1,373.7 733.8,368.5 739.4,361.9 745.0,362.3 750.6,363.0 756.3,357.9 761.9,355.8 767.5,360.9 773.2,363.3 778.8,361.3 784.4,364.7 790.1,372.1 795.7,373.3 801.3,371.6 807.0,375.7 812.6,379.5 818.2,375.5 823.9,371.6 829.5,373.4 835.1,371.9 840.7,364.4 846.4,361.3 852.0,363.4 857.6,360.7 863.3,355.7 868.9,358.1 874.5,363.1 880.2,362.2 885.8,362.0 891.4,368.8 897.1,373.7 902.7,372.0 908.3,373.0 914.0,378.5 919.6,378.2 925.2,372.7 930.8,372.2 936.5,373.6 942.1,368.1 947.7,361.7 953.4,362.4 959.0,362.9 964.6,357.6 970.3,355.9 975.9,361.2 981.5,363.3 987.2,361.2 992.8,365.0 998.4,372.3 1004.1,373.2 1009.7,371.6 1015.3,376.0 1020.9,379.5 1026.6,375.2 1032.2,371.6 1037.8,373.5 1043.5,371.6 1049.1,364.1 1054.7,361.4 1060.4,363.4 1066.0,360.5" fill="none" stroke="#4b64ff" stroke-width="1.8"/>
<rect x="42" y="138" width="310" height="62" fill="#eef8fd" stroke="#0f6ea6" stroke-width="1.6" rx="7"/>
<text x="54" y="161" font-size="15" fill="#0f6ea6" font-weight="700" font-family="Arial, Helvetica, sans-serif">Preview data are selected views</text>
<text x="54" y="183" font-size="12" fill="#50687a" font-family="Arial, Helvetica, sans-serif">Full-resolution data stay on the WILD microSD card</text>
<rect x="8" y="540" width="1126" height="125" fill="#ffffff" stroke="#bfd1dd" stroke-width="1" rx="7"/>
<text x="22" y="561" font-size="14" fill="#0c1720" font-weight="700" font-family="Arial, Helvetica, sans-serif">Preview and display controls</text>
<rect x="70" y="584" width="150" height="34" fill="#e7f5ee" stroke="#2f8b57" stroke-width="1.4" rx="4"/>
<text x="145.0" y="606.0" font-size="13" fill="#2f8b57" font-weight="700" text-anchor="middle" font-family="Arial, Helvetica, sans-serif">Preview On</text>
<rect x="70" y="624" width="150" height="34" fill="#e7f5ee" stroke="#2f8b57" stroke-width="1.4" rx="4"/>
<text x="145.0" y="646.0" font-size="13" fill="#2f8b57" font-weight="700" text-anchor="middle" font-family="Arial, Helvetica, sans-serif">Preview Off</text>
<text x="255" y="589" font-size="13" fill="#0c1720" font-family="Arial, Helvetica, sans-serif">Neural channel</text>
<rect x="360" y="572" width="74" height="27" fill="#ffffff" stroke="#0f6ea6" stroke-width="1.4" rx="3"/>
<text x="368" y="590.5" font-size="12" fill="#50687a" font-family="Arial, Helvetica, sans-serif">1</text>
<text x="420" y="590.5" font-size="12" fill="#50687a" text-anchor="middle" font-family="Arial, Helvetica, sans-serif">v</text>
<text x="255" y="628" font-size="13" fill="#0c1720" font-family="Arial, Helvetica, sans-serif">Aux signal</text>
<rect x="360" y="610" width="180" height="27" fill="#ffffff" stroke="#bfd1dd" stroke-width="1.4" rx="3"/>
<text x="368" y="628.5" font-size="12" fill="#50687a" font-family="Arial, Helvetica, sans-serif">Digital Signal</text>
<text x="526" y="628.5" font-size="12" fill="#50687a" text-anchor="middle" font-family="Arial, Helvetica, sans-serif">v</text>
<rect x="570" y="580" width="13" height="13" fill="#ffffff" stroke="#bfd1dd" stroke-width="1" rx="2"/>
<line x1="573" y1="586" x2="576" y2="590" stroke="#0f6ea6" stroke-width="2"/>
<line x1="576" y1="590" x2="582" y2="582" stroke="#0f6ea6" stroke-width="2"/>
<text x="588" y="591" font-size="12" fill="#0c1720" font-family="Arial, Helvetica, sans-serif">Remove DC for display</text>
<text x="575" y="628" font-size="13" fill="#50687a" font-family="Arial, Helvetica, sans-serif">Status overlays: DET, STIM, DSP, battery, TX/RX</text>
<text x="885" y="571" font-size="12" fill="#50687a" font-family="Arial, Helvetica, sans-serif">Display time</text>
<rect x="885" y="586" width="88" height="29" fill="#ffffff" stroke="#bfd1dd" stroke-width="1.4" rx="3"/>
<text x="893" y="605.5" font-size="12" fill="#50687a" font-family="Arial, Helvetica, sans-serif">2s</text>
<text x="959" y="605.5" font-size="12" fill="#50687a" text-anchor="middle" font-family="Arial, Helvetica, sans-serif">v</text>
<text x="990" y="571" font-size="12" fill="#50687a" font-family="Arial, Helvetica, sans-serif">Display gain</text>
<rect x="990" y="586" width="88" height="29" fill="#ffffff" stroke="#bfd1dd" stroke-width="1.4" rx="3"/>
<text x="998" y="605.5" font-size="12" fill="#50687a" font-family="Arial, Helvetica, sans-serif">500uV</text>
<text x="1064" y="605.5" font-size="12" fill="#50687a" text-anchor="middle" font-family="Arial, Helvetica, sans-serif">v</text>
<rect x="884" y="626" width="194" height="30" fill="#f0f3f5" stroke="#c8d3db" stroke-width="1.4" rx="4"/>
<text x="981.0" y="646.0" font-size="13" fill="#6e7c87" font-weight="700" text-anchor="middle" font-family="Arial, Helvetica, sans-serif">Channel selection</text>
<rect x="28" y="648" width="358" height="42" fill="#e7f5ee" stroke="#2f8b57" stroke-width="1.6" rx="7"/>
<text x="40" y="671" font-size="15" fill="#2f8b57" font-weight="700" font-family="Arial, Helvetica, sans-serif">Use preview deliberately</text>
<text x="40" y="693" font-size="12" fill="#50687a" font-family="Arial, Helvetica, sans-serif">Disable it when runtime and BLE bandwidth matter more</text>
<rect x="410" y="648" width="360" height="42" fill="#eef8fd" stroke="#0f6ea6" stroke-width="1.6" rx="7"/>
<text x="422" y="671" font-size="15" fill="#0f6ea6" font-weight="700" font-family="Arial, Helvetica, sans-serif">Do not treat preview as full data</text>
<text x="422" y="693" font-size="12" fill="#50687a" font-family="Arial, Helvetica, sans-serif">Export full recordings from microSD after the session</text>
</svg>
